<svg width="37" height="36" viewBox="0 0 37 36" fill="none" xmlns="http://www.w3.org/2000/svg">
<path d="M18.7274 0.181824C13.8882 0.181824 13.2814 0.202353 11.3809 0.289032C9.48439 0.375552 8.18914 0.676806 7.05574 1.1172C5.88404 1.57256 4.89036 2.18186 3.89981 3.1724C2.90921 4.16295 2.29991 5.15673 1.84461 6.32844C1.40411 7.46179 1.10296 8.75704 1.01633 10.6536C0.929656 12.5541 0.90918 13.1609 0.90918 18.0001C0.90918 22.8391 0.929656 23.4459 1.01633 25.3464C1.10296 27.243 1.40411 28.5382 1.84461 29.6716C2.29997 30.8433 2.90927 31.837 3.89981 32.8276C4.89041 33.8182 5.88404 34.4275 7.05574 34.8828C8.18914 35.3232 9.48439 35.6244 11.3809 35.711C13.2814 35.7977 13.8882 35.8182 18.7274 35.8182C23.5665 35.8182 24.1733 35.7977 26.0738 35.711C27.9703 35.6245 29.2656 35.3232 30.3989 34.8828C31.5706 34.4275 32.5643 33.8182 33.555 32.8276C34.5455 31.837 35.1548 30.8433 35.6102 29.6716C36.0506 28.5382 36.3518 27.243 36.4383 25.3464C36.525 23.4459 36.5455 22.8391 36.5455 18.0001C36.5455 13.1609 36.525 12.5541 36.4383 10.6536C36.3518 8.75704 36.0506 7.46179 35.6102 6.32844C35.1548 5.15673 34.5455 4.16295 33.555 3.1724C32.5643 2.18186 31.5706 1.57256 30.3989 1.1172C29.2656 0.676806 27.9703 0.375552 26.0738 0.289032C24.1733 0.202353 23.5665 0.181824 18.7274 0.181824ZM18.7274 3.39228C23.485 3.39228 24.0486 3.41048 25.9274 3.4962C27.6647 3.5754 28.6082 3.86567 29.236 4.10969C30.0678 4.43296 30.6613 4.81904 31.2848 5.44255C31.9083 6.06607 32.2944 6.65966 32.6177 7.49133C32.8617 8.1192 33.152 9.06269 33.2312 10.7999C33.3169 12.6788 33.3351 13.2424 33.3351 18C33.3351 22.7576 33.3169 23.3212 33.2312 25.2001C33.152 26.9374 32.8617 27.8808 32.6177 28.5086C32.2944 29.3404 31.9083 29.9339 31.2848 30.5574C30.6613 31.181 30.0677 31.567 29.236 31.8903C28.6082 32.1343 27.6647 32.4246 25.9274 32.5038C24.0489 32.5895 23.4854 32.6077 18.7274 32.6077C13.9694 32.6077 13.4059 32.5895 11.5273 32.5038C9.79 32.4246 8.84655 32.1343 8.21874 31.8903C7.38697 31.567 6.79342 31.181 6.16996 30.5574C5.54645 29.9339 5.16032 29.3403 4.83705 28.5087C4.59303 27.8808 4.30281 26.9373 4.22356 25.2001C4.13783 23.3212 4.11964 22.7576 4.11964 18C4.11964 13.2424 4.13783 12.6788 4.22356 10.7999C4.30281 9.06264 4.59303 8.1192 4.83705 7.49139C5.16032 6.65961 5.54645 6.06607 6.16991 5.4426C6.79342 4.81904 7.38702 4.43296 8.21869 4.10969C8.84655 3.86567 9.79005 3.5754 11.5273 3.4962C13.4062 3.41048 13.9698 3.39228 18.7274 3.39228Z" fill="white"/>
<path d="M18.7274 23.9394C15.4471 23.9394 12.7879 21.2803 12.7879 18.0001C12.7879 14.7197 15.4471 12.0606 18.7274 12.0606C22.0076 12.0606 24.6668 14.7197 24.6668 18.0001C24.6668 21.2803 22.0076 23.9394 18.7274 23.9394ZM18.7274 8.85013C13.674 8.85013 9.57749 12.9466 9.57749 18.0001C9.57749 23.0534 13.674 27.1499 18.7274 27.1499C23.7807 27.1499 27.8772 23.0534 27.8772 18.0001C27.8772 12.9466 23.7807 8.85013 18.7274 8.85013ZM30.377 8.48862C30.377 9.66955 29.4196 10.6268 28.2387 10.6268C27.0579 10.6268 26.1006 9.66955 26.1006 8.48862C26.1006 7.30774 27.0579 6.3504 28.2387 6.3504C29.4196 6.3504 30.377 7.30774 30.377 8.48862Z" fill="white"/>
</svg>
